<svg width="136" height="165" viewBox="0 0 136 165" fill="none" xmlns="http://www.w3.org/2000/svg">
<g clip-path="url(#clip0_21522_209)">
<path d="M93.1329 39.2669C101.254 39.2669 108.078 33.7249 110.033 26.2179L115.5 27.0319C115.607 27.0479 115.715 27.0559 115.82 27.0559C116.871 27.0559 117.791 26.2859 117.951 25.2159C118.127 24.0379 117.312 22.9399 116.135 22.7649L110.594 21.9399C110.596 21.8939 110.598 21.8489 110.598 21.8019C110.598 21.6199 110.592 21.4399 110.584 21.2599C110.584 21.2599 110.133 14.7419 109.51 12.0229C108.889 9.30394 106.975 8.72694 106.975 8.72694C97.2049 6.51494 87.2029 6.28894 84.5999 6.28894C81.9969 6.28894 81.4419 7.62094 81.4419 7.62094L78.2919 12.6169L78.2819 12.6139C78.2059 12.7359 78.136 12.8589 78.063 12.9819L78.0359 13.0249C76.5339 15.6049 75.6689 18.6009 75.6689 21.8019C75.6679 31.4479 83.4879 39.2669 93.1329 39.2669Z" fill="white"/>
<path d="M131.535 78.576V78.574L104.793 76.406L95.5469 55.294C95.5469 55.294 95.0859 52.52 89.5389 46.818C83.9899 41.116 72.7399 43.428 72.7399 43.428C72.7399 43.428 48.8539 47.897 40.9949 49.746C33.1349 51.596 32.8269 59.609 32.8269 59.609L32.1949 64.128L17.0169 61.187C16.8259 61.15 16.6359 61.132 16.4489 61.132C15.0419 61.132 13.7779 62.132 13.5009 63.561L6.08995 101.803C5.77595 103.423 6.84395 105.005 8.46495 105.319L59.6609 115.242C59.7759 115.264 59.8909 115.266 60.0069 115.275H60.0089C59.2809 115.379 58.7179 115.24 58.7179 115.24L49.3179 113.391L46.2359 130.496L22.6759 150.859C20.9749 152.22 19.8839 154.312 19.8839 156.66C19.8839 160.764 23.2099 164.09 27.3129 164.09C29.3479 164.09 31.1909 163.272 32.5329 161.945C32.5329 161.945 60.2579 139.895 62.1079 138.354C63.9579 136.814 64.8809 134.501 64.8809 134.501C64.8809 134.501 69.422 120.553 70.66 117.627C71.5079 115.623 75.5919 116.548 75.5919 116.548L98.4769 125.179L106.092 154.241C106.174 154.871 106.334 155.475 106.565 156.045H106.567C107.665 158.773 110.337 160.699 113.456 160.699C117.56 160.699 120.886 157.372 120.886 153.269C120.886 152.67 120.814 152.09 120.679 151.533C119.837 146.568 116.075 124.487 115.118 119.707C114.04 114.313 110.497 112.773 110.497 112.773C110.497 112.773 89.229 101.215 87.8429 100.444C86.4559 99.674 86.7649 97.67 86.7649 97.67L90.6949 83.339L93.4679 89.195C93.4679 89.195 95.087 92.469 97.5519 92.586L130.909 93.406C135.013 93.406 138.339 90.08 138.339 85.975C138.338 82.086 135.346 78.896 131.535 78.576ZM60.1039 63.307L58.3149 69.187L68.2129 71.106L47.9989 67.189L48.5469 64.693L60.1039 63.307ZM57.8549 108.78L12.5509 99.999L18.8209 67.646L31.3629 70.077L29.7449 81.644L29.1049 86.05C29.0999 86.076 29.0969 86.106 29.0929 86.132L29.0749 86.259H29.0769C29.0369 86.571 29.0139 86.888 29.0139 87.21C29.0139 91.314 32.3409 94.639 36.4439 94.639C40.5469 94.639 43.8729 91.314 43.8729 87.21C43.8729 86.892 43.8519 86.58 43.8119 86.273L46.7129 73.05L64.1259 76.424L57.8549 108.78Z" fill="white"/>
<path d="M25.05 17.508H63.077C64.177 17.508 65.0771 16.612 65.0771 15.518C65.0771 14.424 64.177 13.528 63.077 13.528H25.05C23.95 13.528 23.05 14.424 23.05 15.518C23.05 16.612 23.95 17.508 25.05 17.508Z" fill="white"/>
<path d="M38.0798 23.5249C36.9798 23.5249 36.0798 24.4209 36.0798 25.5149C36.0798 26.6089 36.9798 27.5049 38.0798 27.5049H61.0388C62.1388 27.5049 63.0388 26.6089 63.0388 25.5149C63.0388 24.4199 62.1388 23.5249 61.0388 23.5249H38.0798Z" fill="white"/>
<path d="M87.0981 33.232C95.2191 33.232 102.043 27.69 103.998 20.183L109.465 20.997C109.572 21.013 109.68 21.021 109.785 21.021C110.836 21.021 111.756 20.251 111.916 19.181C112.092 18.003 111.277 16.905 110.1 16.73L104.559 15.905C104.561 15.859 104.563 15.814 104.563 15.767C104.563 15.585 104.557 15.405 104.549 15.225C104.549 15.225 104.098 8.70703 103.475 5.98803C102.854 3.26903 100.94 2.69203 100.94 2.69203C91.1701 0.480028 81.1681 0.254028 78.5641 0.254028C75.9601 0.254028 75.4061 1.58603 75.4061 1.58603L72.2561 6.58203L72.2461 6.57903C72.1701 6.70003 72.1001 6.82403 72.0271 6.94703L72.0001 6.99003C70.4981 9.57003 69.6331 12.566 69.6331 15.767C69.6331 25.413 77.4531 33.232 87.0981 33.232Z" fill="#3A3A3A"/>
<path d="M124.653 74.6116V74.6096L97.911 72.4416L88.665 51.3296C88.665 51.3296 88.204 48.5556 82.657 42.8536C77.108 37.1516 65.858 39.4636 65.858 39.4636C65.858 39.4636 41.972 43.9326 34.113 45.7806C26.253 47.6306 25.945 55.6436 25.945 55.6436L22.863 77.6796L22.223 82.0856C22.218 82.1116 22.215 82.1416 22.211 82.1676L22.193 82.2946H22.195C22.155 82.6066 22.132 82.9236 22.132 83.2456C22.132 87.3496 25.459 90.6746 29.562 90.6746C33.665 90.6746 36.991 87.3496 36.991 83.2456C36.991 82.9276 36.97 82.6156 36.93 82.3086L41.664 60.7276L53.221 59.3416L51.432 65.2216L61.33 67.1406C62.95 67.4536 64.018 69.0366 63.705 70.6576L56.293 108.901C56.016 110.331 54.752 111.331 53.345 111.331C53.273 111.331 53.199 111.315 53.125 111.31C52.397 111.414 51.834 111.275 51.834 111.275L42.434 109.426L39.352 126.531L15.792 146.894C14.091 148.255 13 150.347 13 152.695C13 156.799 16.326 160.125 20.429 160.125C22.464 160.125 24.307 159.307 25.649 157.98C25.649 157.98 53.374 135.93 55.224 134.389C57.074 132.849 57.997 130.536 57.997 130.536C57.997 130.536 62.538 116.588 63.776 113.662C64.624 111.658 68.708 112.583 68.708 112.583L91.593 121.214L99.208 150.276C99.29 150.906 99.45 151.51 99.681 152.08H99.683C100.781 154.808 103.453 156.734 106.572 156.734C110.676 156.734 114.002 153.407 114.002 149.304C114.002 148.705 113.93 148.125 113.795 147.568C112.953 142.603 109.191 120.522 108.234 115.742C107.156 110.348 103.613 108.808 103.613 108.808C103.613 108.808 82.346 97.2526 80.96 96.4806C79.573 95.7106 79.882 93.7066 79.882 93.7066L83.812 79.3756L86.585 85.2316C86.585 85.2316 88.204 88.5056 90.669 88.6226L124.026 89.4426C128.13 89.4426 131.456 86.1166 131.456 82.0116C131.456 78.1216 128.464 74.9306 124.653 74.6116Z" fill="#3A3A3A"/>
<path d="M53.9708 110.144H53.9728C54.0458 110.15 54.1198 110.165 54.1928 110.165C55.5998 110.165 56.8638 109.165 57.1408 107.735L64.5528 69.492C64.8658 67.871 63.7978 66.289 62.1778 65.975L41.9638 62.058L40.6778 67.92L58.0908 71.294L51.8198 103.648L6.51579 94.869L12.7858 62.516L25.3278 64.947L26.1598 58.997L10.9818 56.055C10.7908 56.018 10.6008 56 10.4138 56C9.00679 56 7.74279 57 7.46579 58.429L0.0547894 96.673C-0.259211 98.293 0.808789 99.875 2.42979 100.189L53.6258 110.112C53.7398 110.134 53.8548 110.135 53.9708 110.144Z" fill="#F0C42E"/>
<path d="M59.0419 9.48194C59.0419 10.5769 58.1419 11.4719 57.0419 11.4719H19.0149C17.9149 11.4719 17.0149 10.5759 17.0149 9.48194C17.0149 8.38794 17.9149 7.49194 19.0149 7.49194H57.0419C58.1419 7.49294 59.0419 8.38794 59.0419 9.48194Z" fill="#F0C52E"/>
<path d="M57.0039 19.48C57.0039 20.574 56.1039 21.47 55.0039 21.47H32.0439C30.9439 21.47 30.0439 20.574 30.0439 19.48C30.0439 18.385 30.9439 17.49 32.0439 17.49H55.0029C56.1039 17.49 57.0039 18.386 57.0039 19.48Z" fill="#F0C52E"/>
</g>
<defs>
<clipPath id="clip0_21522_209">
<rect width="136" height="164" fill="white" transform="translate(0 0.5)"/>
</clipPath>
</defs>
</svg>
