<svg width="144" height="173" viewBox="0 0 144 173" fill="none" xmlns="http://www.w3.org/2000/svg">
<g clip-path="url(#clip0_16502_209)" filter="url(#filter0_d_16502_209)">
<path d="M97.1329 39.2669C105.254 39.2669 112.078 33.7249 114.033 26.2179L119.5 27.0319C119.607 27.0479 119.715 27.0559 119.82 27.0559C120.871 27.0559 121.791 26.2859 121.951 25.2159C122.127 24.0379 121.312 22.9399 120.135 22.7649L114.594 21.9399C114.596 21.8939 114.598 21.8489 114.598 21.8019C114.598 21.6199 114.592 21.4399 114.584 21.2599C114.584 21.2599 114.133 14.7419 113.51 12.0229C112.889 9.30394 110.975 8.72694 110.975 8.72694C101.205 6.51494 91.2029 6.28894 88.5999 6.28894C85.9969 6.28894 85.4419 7.62094 85.4419 7.62094L82.2919 12.6169L82.2819 12.6139C82.2059 12.7359 82.136 12.8589 82.063 12.9819L82.0359 13.0249C80.5339 15.6049 79.6689 18.6009 79.6689 21.8019C79.6679 31.4479 87.4879 39.2669 97.1329 39.2669Z" fill="white"/>
<path d="M135.535 78.576V78.574L108.793 76.406L99.5469 55.294C99.5469 55.294 99.0859 52.52 93.5389 46.818C87.9899 41.116 76.7399 43.428 76.7399 43.428C76.7399 43.428 52.8539 47.897 44.9949 49.746C37.1349 51.596 36.8269 59.609 36.8269 59.609L36.1949 64.128L21.0169 61.187C20.8259 61.15 20.6359 61.132 20.4489 61.132C19.0419 61.132 17.7779 62.132 17.5009 63.561L10.0899 101.803C9.77595 103.423 10.8439 105.005 12.4649 105.319L63.6609 115.242C63.7759 115.264 63.8909 115.266 64.0069 115.275H64.0089C63.2809 115.379 62.7179 115.24 62.7179 115.24L53.3179 113.391L50.2359 130.496L26.6759 150.859C24.9749 152.22 23.8839 154.312 23.8839 156.66C23.8839 160.764 27.2099 164.09 31.3129 164.09C33.3479 164.09 35.1909 163.272 36.5329 161.945C36.5329 161.945 64.2579 139.895 66.1079 138.354C67.9579 136.814 68.8809 134.501 68.8809 134.501C68.8809 134.501 73.422 120.553 74.66 117.627C75.5079 115.623 79.5919 116.548 79.5919 116.548L102.477 125.179L110.092 154.241C110.174 154.871 110.334 155.475 110.565 156.045H110.567C111.665 158.773 114.337 160.699 117.456 160.699C121.56 160.699 124.886 157.372 124.886 153.269C124.886 152.67 124.814 152.09 124.679 151.533C123.837 146.568 120.075 124.487 119.118 119.707C118.04 114.313 114.497 112.773 114.497 112.773C114.497 112.773 93.229 101.215 91.8429 100.444C90.4559 99.674 90.7649 97.67 90.7649 97.67L94.6949 83.339L97.4679 89.195C97.4679 89.195 99.087 92.469 101.552 92.586L134.909 93.406C139.013 93.406 142.339 90.08 142.339 85.975C142.338 82.086 139.346 78.896 135.535 78.576ZM64.1039 63.307L62.3149 69.187L72.2129 71.106L51.9989 67.189L52.5469 64.693L64.1039 63.307ZM61.8549 108.78L16.5509 99.999L22.8209 67.646L35.3629 70.077L33.7449 81.644L33.1049 86.05C33.0999 86.076 33.0969 86.106 33.0929 86.132L33.0749 86.259H33.0769C33.0369 86.571 33.0139 86.888 33.0139 87.21C33.0139 91.314 36.3409 94.639 40.4439 94.639C44.5469 94.639 47.8729 91.314 47.8729 87.21C47.8729 86.892 47.8519 86.58 47.8119 86.273L50.7129 73.05L68.1259 76.424L61.8549 108.78Z" fill="white"/>
<path d="M29.05 17.508H67.077C68.177 17.508 69.0771 16.612 69.0771 15.518C69.0771 14.424 68.177 13.528 67.077 13.528H29.05C27.95 13.528 27.05 14.424 27.05 15.518C27.05 16.612 27.95 17.508 29.05 17.508Z" fill="white"/>
<path d="M42.0798 23.5249C40.9798 23.5249 40.0798 24.4209 40.0798 25.5149C40.0798 26.6089 40.9798 27.5049 42.0798 27.5049H65.0388C66.1388 27.5049 67.0388 26.6089 67.0388 25.5149C67.0388 24.4199 66.1388 23.5249 65.0388 23.5249H42.0798Z" fill="white"/>
<path d="M91.0981 33.232C99.2191 33.232 106.043 27.69 107.998 20.183L113.465 20.997C113.572 21.013 113.68 21.021 113.785 21.021C114.836 21.021 115.756 20.251 115.916 19.181C116.092 18.003 115.277 16.905 114.1 16.73L108.559 15.905C108.561 15.859 108.563 15.814 108.563 15.767C108.563 15.585 108.557 15.405 108.549 15.225C108.549 15.225 108.098 8.70703 107.475 5.98803C106.854 3.26903 104.94 2.69203 104.94 2.69203C95.1701 0.480028 85.1681 0.254028 82.5641 0.254028C79.9601 0.254028 79.4061 1.58603 79.4061 1.58603L76.2561 6.58203L76.2461 6.57903C76.1701 6.70003 76.1001 6.82403 76.0271 6.94703L76.0001 6.99003C74.4981 9.57003 73.6331 12.566 73.6331 15.767C73.6331 25.413 81.4531 33.232 91.0981 33.232Z" fill="#3A3A3A"/>
<path d="M129.5 72.5411V72.5391L102.758 70.3711L93.512 49.2591C93.512 49.2591 93.051 46.4851 87.504 40.7831C81.955 35.0811 70.705 37.3931 70.705 37.3931C70.705 37.3931 46.819 41.8621 38.96 43.7101C31.1 45.5601 30.792 53.5731 30.792 53.5731L27.71 75.6091L27.07 80.0151C27.065 80.0411 27.062 80.0711 27.058 80.0971L27.04 80.2241H27.042C27.002 80.5361 26.979 80.8531 26.979 81.1751C26.979 85.2791 30.306 88.6041 34.409 88.6041C38.512 88.6041 41.838 85.2791 41.838 81.1751C41.838 80.8571 41.817 80.5451 41.777 80.2381L46.511 58.6571L58.068 57.2711L56.279 63.1511L66.177 65.0701C67.797 65.3831 68.865 66.9661 68.552 68.5871L61.14 106.83C60.863 108.26 59.599 109.26 58.192 109.26C58.12 109.26 58.046 109.244 57.972 109.239C57.244 109.343 56.681 109.204 56.681 109.204L47.281 107.355L44.199 124.46L20.639 144.823C18.938 146.184 17.847 148.276 17.847 150.624C17.847 154.728 21.173 158.054 25.276 158.054C27.311 158.054 29.154 157.236 30.496 155.909C30.496 155.909 58.221 133.859 60.071 132.318C61.921 130.778 62.844 128.465 62.844 128.465C62.844 128.465 67.385 114.517 68.623 111.591C69.471 109.587 73.555 110.512 73.555 110.512L96.44 119.143L104.055 148.205C104.137 148.835 104.297 149.439 104.528 150.009H104.53C105.628 152.737 108.3 154.663 111.419 154.663C115.523 154.663 118.849 151.336 118.849 147.233C118.849 146.634 118.777 146.054 118.642 145.497C117.8 140.532 114.038 118.451 113.081 113.671C112.003 108.277 108.46 106.737 108.46 106.737C108.46 106.737 87.193 95.1821 85.807 94.4101C84.42 93.6401 84.729 91.6361 84.729 91.6361L88.659 77.3051L91.432 83.1611C91.432 83.1611 93.051 86.4351 95.516 86.5521L128.873 87.3721C132.977 87.3721 136.303 84.0461 136.303 79.9411C136.303 76.0511 133.311 72.8601 129.5 72.5411Z" fill="#3A3A3A"/>
<path d="M57.9708 109.644H57.9728C58.0458 109.65 58.1198 109.665 58.1928 109.665C59.5998 109.665 60.8638 108.665 61.1408 107.235L68.5528 68.992C68.8658 67.371 67.7978 65.789 66.1778 65.475L45.9638 61.558L44.6778 67.42L62.0908 70.794L55.8198 103.148L10.5158 94.369L16.7858 62.016L29.3278 64.447L30.1598 58.497L14.9818 55.555C14.7908 55.518 14.6008 55.5 14.4138 55.5C13.0068 55.5 11.7428 56.5 11.4658 57.929L4.05479 96.173C3.74079 97.793 4.80879 99.375 6.42979 99.689L57.6258 109.612C57.7398 109.634 57.8548 109.635 57.9708 109.644Z" fill="#F0C42E"/>
<path d="M63.0419 9.48194C63.0419 10.5769 62.1419 11.4719 61.0419 11.4719H23.0149C21.9149 11.4719 21.0149 10.5759 21.0149 9.48194C21.0149 8.38794 21.9149 7.49194 23.0149 7.49194H61.0419C62.1419 7.49294 63.0419 8.38794 63.0419 9.48194Z" fill="#F0C52E"/>
<path d="M61.0039 19.48C61.0039 20.574 60.1039 21.47 59.0039 21.47H36.0439C34.9439 21.47 34.0439 20.574 34.0439 19.48C34.0439 18.385 34.9439 17.49 36.0439 17.49H59.0029C60.1039 17.49 61.0039 18.386 61.0039 19.48Z" fill="#F0C52E"/>
</g>
<defs>
<filter id="filter0_d_16502_209" x="0" y="0.5" width="144" height="172" filterUnits="userSpaceOnUse" color-interpolation-filters="sRGB">
<feFlood flood-opacity="0" result="BackgroundImageFix"/>
<feColorMatrix in="SourceAlpha" type="matrix" values="0 0 0 0 0 0 0 0 0 0 0 0 0 0 0 0 0 0 127 0" result="hardAlpha"/>
<feOffset dy="4"/>
<feGaussianBlur stdDeviation="2"/>
<feComposite in2="hardAlpha" operator="out"/>
<feColorMatrix type="matrix" values="0 0 0 0 0 0 0 0 0 0 0 0 0 0 0 0 0 0 0.25 0"/>
<feBlend mode="normal" in2="BackgroundImageFix" result="effect1_dropShadow_16502_209"/>
<feBlend mode="normal" in="SourceGraphic" in2="effect1_dropShadow_16502_209" result="shape"/>
</filter>
<clipPath id="clip0_16502_209">
<rect width="136" height="164" fill="white" transform="translate(4 0.5)"/>
</clipPath>
</defs>
</svg>
