<svg width="105" height="63" viewBox="0 0 105 63" fill="none" xmlns="http://www.w3.org/2000/svg">
<g filter="url(#filter0_d_16502_355)">
<path d="M88.1314 32.639V20.003C88.1314 18.694 89.1764 17.633 90.4664 17.633L98.7924 19.214V11.02C98.7924 8.66497 97.0844 7.58897 94.5904 6.75497L71.4034 0.174968C73.0194 1.56597 73.2924 2.21497 73.2924 4.57097V49.78C73.2924 52.136 72.8424 53.846 71.3254 54.99L94.5904 47.925C96.9914 47.092 98.7924 43.709 98.7924 41.353V33.44L90.4664 35.007C89.1764 35.009 88.1314 33.947 88.1314 32.639Z" fill="#363636"/>
<path d="M99.1294 20.979L91.5314 19.535C90.5234 19.535 89.7074 20.364 89.7074 21.386V31.254C89.7074 32.277 90.5234 33.106 91.5314 33.106L99.1294 31.675C100.283 31.256 100.953 30.846 100.953 29.823V22.83C100.953 21.808 100.187 21.323 99.1294 20.979Z" fill="#363636"/>
<path d="M71.1704 4.48297C71.1704 -0.597033 66.9384 0.0239677 66.9384 0.0239677C66.9384 0.0239677 9.83241 4.73797 6.83841 5.14497C3.84441 5.55197 4.00141 9.53197 4.00141 9.53197C4.00141 9.53197 4.00041 42.069 4.00041 45.812C4.00041 49.555 6.59941 49.565 6.59941 49.565L23.0764 50.968L31.2124 39.3C31.2124 39.3 32.3214 37.472 33.7174 37.472C35.1144 37.472 36.1494 39.333 36.1494 39.333L45.2104 52.854C45.2104 52.854 64.1054 54.763 67.7314 54.763C71.3574 54.762 71.1704 49.739 71.1704 49.739C71.1704 49.739 71.1704 9.56297 71.1704 4.48297ZM16.9824 37.192C13.2844 37.192 10.2864 32.591 10.2864 26.917C10.2864 21.243 13.2844 16.642 16.9824 16.642C20.6804 16.642 23.6784 21.243 23.6784 26.917C23.6784 32.591 20.6804 37.192 16.9824 37.192ZM53.1404 38.618C48.4784 38.618 44.6994 33.379 44.6994 26.917C44.6994 20.454 48.4794 15.215 53.1404 15.215C57.8024 15.215 61.5824 20.454 61.5824 26.917C61.5824 33.379 57.8024 38.618 53.1404 38.618Z" fill="#363636"/>
<path d="M66.9795 0.522273L66.9384 0.0239677C66.9795 0.522273 66.9793 0.522291 66.9789 0.522327L66.9769 0.522488L66.9692 0.523131L66.9382 0.52569L66.8157 0.535806L66.3375 0.575309L64.52 0.725614C62.9527 0.855305 60.7104 1.04103 58.0102 1.26518C52.6098 1.71347 45.3782 2.31542 38.053 2.93009C23.3884 4.16063 8.38587 5.43921 6.90576 5.64041C5.68193 5.80678 5.07998 6.68625 4.77333 7.64361C4.62078 8.1199 4.5519 8.59058 4.52189 8.94583C4.50698 9.12234 4.50188 9.2676 4.50047 9.36725C4.49976 9.417 4.49998 9.4552 4.50033 9.48001L4.50087 9.50691L4.50103 9.51226L4.50103 9.51237L4.50104 9.51258L4.50105 9.51282L4.50106 9.51302L4.50141 9.52212L4.50141 9.53198L4.00141 9.53197C4.50141 9.53198 4.50141 9.53211 4.50141 9.53235V9.53347L4.50141 9.53791L4.50141 9.55558L4.50141 9.62543L4.5014 9.8983L4.50137 10.9374L4.50126 14.6744L4.50091 26.2684L4.50041 45.812C4.50041 47.5536 5.09612 48.3273 5.59311 48.6871C5.85418 48.8761 6.11584 48.9714 6.31179 49.0192C6.40936 49.043 6.48878 49.0545 6.5408 49.0601C6.56672 49.0628 6.58556 49.0641 6.59612 49.0646L6.6037 49.065H6.60491L6.60517 49.065L6.60549 49.065L6.62162 49.065L6.64184 49.0668L22.8313 50.4453L30.7947 39.0249L30.8026 39.0123C30.8128 38.9962 30.8272 38.9736 30.8457 38.9456C30.8827 38.8897 30.9361 38.8115 31.0044 38.7185C31.1403 38.5333 31.3383 38.2848 31.5858 38.0345C32.06 37.5548 32.8102 36.972 33.7174 36.972C34.6328 36.972 35.3664 37.5714 35.8232 38.0617C36.0616 38.3177 36.2503 38.5716 36.3791 38.7607C36.4438 38.8557 36.4942 38.9355 36.5291 38.9927C36.5383 39.0078 36.5464 39.0213 36.5535 39.0331C36.5598 39.0438 36.5652 39.053 36.5697 39.0608L36.5747 39.0694L45.4947 52.38L46.079 52.4385C46.6025 52.4906 47.3544 52.5652 48.2681 52.6546C50.0956 52.8335 52.5698 53.0721 55.1571 53.3106C60.3477 53.7891 65.9474 54.2629 67.7313 54.263L66.9795 0.522273ZM66.9795 0.522273L66.9953 0.52097M66.9795 0.522273L66.9953 0.52097M71.1704 49.739H70.6704V49.7483L70.6707 49.7571L70.6707 49.7573L70.6708 49.7576L70.6708 49.7584L70.671 49.7662L70.6717 49.802C70.6721 49.8345 70.6723 49.8839 70.6714 49.9476C70.6696 50.0753 70.6632 50.26 70.6447 50.4824C70.6075 50.93 70.5225 51.5172 70.335 52.0966C70.1465 52.679 69.8644 53.2226 69.4528 53.6163C69.0533 53.9985 68.5088 54.2627 67.7314 54.263L71.1704 49.739ZM71.1704 49.739C70.6704 49.739 70.6704 49.7388 70.6704 49.7385V49.7371V49.7348V49.7316V49.7275V49.7225V49.7166V49.7098V49.7021V49.6936V49.6841V49.6737V49.6625V49.6504V49.6374V49.6236V49.6088V49.5933V49.5768V49.5595V49.5414V49.5224V49.5026V49.4819V49.4604V49.438V49.4148V49.3908V49.366V49.3403V49.3138V49.2865V49.2584V49.2295V49.1998V49.1693V49.1379V49.1058V49.0729V49.0392V49.0047V48.9695V48.9334V48.8966V48.859V48.8207V48.7815V48.7417V48.701V48.6596V48.6175V48.5746V48.5309V48.4866V48.4414V48.3956V48.349V48.3017V48.2537V48.2049V48.1554V48.1052V48.0543V48.0027V47.9504V47.8974V47.8437V47.7893V47.7342V47.6784V47.622V47.5648V47.507V47.4485V47.3893V47.3295V47.269V47.2078V47.146V47.0835V47.0204V46.9566V46.8922V46.8272V46.7615V46.6952V46.6282V46.5606V46.4924V46.4236V46.3542V46.2841V46.2134V46.1422V46.0703V45.9978V45.9248V45.8511V45.7768V45.702V45.6266V45.5506V45.474V45.3969V45.3191V45.2408V45.162V45.0826V45.0026V44.9221V44.841V44.7594V44.6773V44.5946V44.5113V44.4276V44.3433V44.2585V44.1731V44.0873V44.0009V43.914V43.8266V43.7387V43.6503V43.5614V43.472V43.3821V43.2917V43.2008V43.1095V43.0177V42.9254V42.8326V42.7393V42.6456V42.5515V42.4568V42.3617V42.2662V42.1702V42.0738V41.9769V41.8796V41.7819V41.6837V41.5851V41.4861V41.3866V41.2867V41.1865V41.0858V40.9846V40.8831V40.7812V40.6789V40.5762V40.4731V40.3696V40.2658V40.1615V40.0569V39.9519V39.8465V39.7408V39.6347V39.5282V39.4214V39.3142V39.2067V39.0988V38.9906V38.882V38.7731V38.6639V38.5544V38.4445V38.3343V38.2237V38.1129V38.0017V37.8902V37.7784V37.6664V37.554V37.4413V37.3283V37.215V37.1015V36.9877V36.8735V36.7591V36.6445V36.5295V36.4143V36.2989V36.1831V36.0671V35.9509V35.8344V35.7177V35.6007V35.4835V35.366V35.2483V35.1304V35.0123V34.8939V34.7753V34.6565V34.5375V34.4183V34.2988V34.1792V34.0594V33.9393V33.8191V33.6987V33.5781V33.4573V33.3364V33.2152V33.0939V32.9725V32.8508V32.729V32.607V32.4849V32.3626V32.2402V32.1176V31.9949V31.8721V31.7491V31.626V31.5027V31.3794V31.2559V31.1323V31.0085V30.8847V30.7608V30.6367V30.5125V30.3883V30.2639V30.1395V30.015V29.8904V29.7657V29.6409V29.516V29.3911V29.2661V29.1411V29.016V28.8908V28.7656V28.6403V28.515V28.3896V28.2642V28.1387V28.0132V27.8877V27.7622V27.6366V27.511V27.3854V27.2598V27.1342V27.0085V26.8829V26.7572V26.6316V26.5059V26.3803V26.2547V26.1291V26.0035V25.8779V25.7524V25.6269V25.5014V25.376V25.2506V25.1253V25V24.8747V24.7495V24.6243V24.4993V24.3742V24.2493V24.1244V23.9996V23.8748V23.7502V23.6256V23.5011V23.3767V23.2524V23.1282V23.0041V22.8801V22.7562V22.6324V22.5087V22.3851V22.2617V22.1384V22.0152V21.8921V21.7692V21.6464V21.5238V21.4013V21.2789V21.1567V21.0347V20.9128V20.791V20.6695V20.5481V20.4268V20.3058V20.1849V20.0642V19.9437V19.8234V19.7032V19.5833V19.4635V19.344V19.2246V19.1055V18.9866V18.8679V18.7494V18.6311V18.5131V18.3953V18.2777V18.1603V18.0432V17.9263V17.8097V17.6933V17.5772V17.4613V17.3457V17.2304V17.1153V17.0005V16.8859V16.7717V16.6577V16.5439V16.4305V16.3174V16.2045V16.092V15.9797V15.8678V15.7561V15.6448V15.5338V15.4231V15.3127V15.2026V15.0929V14.9834V14.8744V14.7656V14.6572V14.5491V14.4414V14.3341V14.227V14.1204V14.0141V13.9081V13.8025V13.6973V13.5925V13.4881V13.384V13.2803V13.177V13.074V12.9715V12.8694V12.7677V12.6663V12.5654V12.4649V12.3648V12.2651V12.1658V12.067V11.9686V11.8706V11.773V11.6759V11.5793V11.483V11.3872V11.2919V11.197V11.1026V11.0086V10.9151V10.8221V10.7295V10.6374V10.5458V10.4547V10.364V10.2739V10.1842V10.095V10.0063V9.91815V9.83047V9.7433V9.65664V9.57049V9.48486V9.39976V9.31517V9.23111V9.14758V9.06459V8.98214V8.90022V8.81885V8.73803V8.65776V8.57804V8.49888V8.42028V8.34225V8.26478V8.18788V8.11156V8.03582V7.96065V7.88608V7.81209V7.73869V7.66588V7.59368V7.52207V7.45107V7.38068V7.3109V7.24174V7.17319V7.10526V7.03796V6.97129V6.90525V6.83985V6.77508V6.71095V6.64747V6.58464V6.52246V6.46094V6.40007V6.33987V6.28033V6.22146V6.16326V6.10574V6.04889V5.99273V5.93725V5.88247V5.82837V5.77497V5.72227V5.67027V5.61898V5.5684V5.51853V5.46937V5.42094V5.37322V5.32623V5.27998V5.23445V5.18966V5.14561V5.1023V5.05974V5.01793V4.97687V4.93657V4.89702V4.85824V4.82023V4.78298V4.74651V4.71081V4.6759V4.64177V4.60842V4.57586V4.5441V4.51313V4.48297C70.6704 3.28221 70.4207 2.46308 70.0813 1.90184C69.7437 1.34351 69.2979 1.0079 68.8479 0.803838C68.3923 0.597236 67.929 0.524583 67.573 0.505602C67.3965 0.496188 67.2505 0.500193 67.1507 0.506278C67.1009 0.509314 67.063 0.512846 67.039 0.51541C67.027 0.516691 67.0185 0.517727 67.0137 0.518334L67.011 0.51867M71.1704 49.739L67.011 0.51867M67.011 0.51867L67.0105 0.518746M67.011 0.51867L67.0105 0.518746M66.9953 0.52097L67.0095 0.518896M66.9953 0.52097L67.0095 0.518896M67.0095 0.518896L67.0095 0.51889M67.0095 0.518896L67.0095 0.51889M67.0095 0.51889L67.0101 0.518808M67.0095 0.51889L67.0101 0.518808M67.0101 0.518808L67.0105 0.518746M67.0101 0.518808L67.0105 0.518746M90.5597 17.1417L90.5135 17.133H90.4664C88.8932 17.133 87.6314 18.4249 87.6314 20.003V32.639C87.6314 34.2157 88.8931 35.5094 90.4672 35.507L90.5134 35.5069L90.5589 35.4983L98.2924 34.0429V41.353C98.2924 42.4197 97.8787 43.766 97.1636 44.9519C96.4483 46.1381 95.4808 47.0834 94.4355 47.4495L72.892 53.9917C73.5772 52.848 73.7924 51.4298 73.7924 49.78V4.57097C73.7924 3.39044 73.7277 2.54732 73.4135 1.81414C73.3145 1.58321 73.1932 1.36871 73.0485 1.16154L94.4427 7.2328C95.6684 7.64342 96.6338 8.09373 97.2914 8.68805C97.9267 9.26219 98.2924 9.98579 98.2924 11.02V18.6101L90.5597 17.1417ZM90.2074 21.386C90.2074 20.6481 90.7829 20.0589 91.4881 20.0357L99.0044 21.4642C99.4979 21.6269 99.8633 21.8051 100.103 22.0215C100.326 22.2225 100.453 22.4661 100.453 22.83V29.823C100.453 30.2027 100.339 30.4232 100.138 30.6051C99.9106 30.8116 99.549 30.9886 98.9966 31.1912L91.4885 32.6053C90.7833 32.5822 90.2074 31.9932 90.2074 31.254V21.386ZM9.78641 26.917C9.78641 29.8367 10.5568 32.5033 11.8288 34.4552C13.0977 36.4024 14.9088 37.692 16.9824 37.692C19.056 37.692 20.8671 36.4024 22.1361 34.4552C23.408 32.5033 24.1784 29.8367 24.1784 26.917C24.1784 23.9973 23.408 21.3306 22.1361 19.3787C20.8671 17.4315 19.056 16.142 16.9824 16.142C14.9088 16.142 13.0977 17.4315 11.8288 19.3787C10.5568 21.3306 9.78641 23.9973 9.78641 26.917ZM44.1994 26.917C44.1994 30.2413 45.1707 33.2715 46.7662 35.4832C48.3611 37.6942 50.6082 39.118 53.1404 39.118C55.6726 39.118 57.9199 37.6943 59.5151 35.4833C61.1109 33.2716 62.0824 30.2413 62.0824 26.917C62.0824 23.5922 61.1109 20.5616 59.5152 18.3498C57.9199 16.1387 55.6726 14.715 53.1404 14.715C50.6087 14.715 48.3616 16.1387 46.7665 18.3498C45.171 20.5616 44.1994 23.5922 44.1994 26.917Z" stroke="black"/>
</g>
<defs>
<filter id="filter0_d_16502_355" x="0" y="0" width="104.953" height="62.99" filterUnits="userSpaceOnUse" color-interpolation-filters="sRGB">
<feFlood flood-opacity="0" result="BackgroundImageFix"/>
<feColorMatrix in="SourceAlpha" type="matrix" values="0 0 0 0 0 0 0 0 0 0 0 0 0 0 0 0 0 0 127 0" result="hardAlpha"/>
<feOffset dy="4"/>
<feGaussianBlur stdDeviation="2"/>
<feComposite in2="hardAlpha" operator="out"/>
<feColorMatrix type="matrix" values="0 0 0 0 0 0 0 0 0 0 0 0 0 0 0 0 0 0 0.25 0"/>
<feBlend mode="normal" in2="BackgroundImageFix" result="effect1_dropShadow_16502_355"/>
<feBlend mode="normal" in="SourceGraphic" in2="effect1_dropShadow_16502_355" result="shape"/>
</filter>
</defs>
</svg>
